<?xml version="1.0" standalone="no"?><!DOCTYPE svg PUBLIC "-//W3C//DTD SVG 1.1//EN" "http://www.w3.org/Graphics/SVG/1.1/DTD/svg11.dtd"><svg t="1722606613611" class="icon" viewBox="0 0 1024 1024" version="1.1" xmlns="http://www.w3.org/2000/svg" p-id="2767" xmlns:xlink="http://www.w3.org/1999/xlink" width="200" height="200"><path d="M214 257.6s114.2 16.9 137.5 68.8C374.2 377.7 443 166.1 506 154.5c62.9-11.7 114.2 120.1 137.6 154.5 22.7 34.4 125.9-85.7 188.8-85.7 62.9 0-35.6 359-120.1 429-88 72.9-322.3 247.7-515.2-137.6 0 0-34.4-97.3-34.4-206.3-0.6-107.9 51.3-50.8 51.3-50.8z m0 0" fill="#4ABDFF" p-id="2768"></path><path d="M915.1 450.3c-19.4-6-38.7 4.7-44.7 24C859.1 511 843.7 545 825 576.4c-66.1 109.5-182.2 172.2-317.7 172.2s-251-62.7-317.7-172.9c-18.7-31.4-34-66.1-45.4-102.1-6-18.7-26-29.4-44.7-24-18.7 6-29.4 25.4-24 44.7 12.7 42 30.7 81.4 52.7 118.1C200.3 732.5 327.1 807.3 471.3 818v168.2c0 19.4 16 35.4 36 35.4s36-16 36-35.4V818.8c144.2-10.7 271-86.1 343.1-205.6 22-36.7 39.4-76.1 52.7-118.1 5.3-19.4-5.3-39.4-24-44.8zM931.1 180c-10.7-25.4-36-42-64.1-42.7h-10.7c-64.1 0-122.1 19.4-173.5 40C638.1 100.6 596 49.2 552 17.8l-8-6C524-0.9 499.3-2.9 477.9 6.5c-6 2.7-12 6-17.4 10-43.3 31.4-86.7 83.4-132.1 159.5-50.7-20.7-108.1-38.7-170.2-38.7h-10.7c-28 0.7-52.7 17.4-64.1 42.7C58.7 238.1 48.7 306.8 54 379.6c1.3 18.7 17.4 32.7 36 32.7h2.7c20-1.3 34.7-18.7 32.7-38-4.7-60.7 3.3-118.1 23.4-164.9h9.3c60.1 0 116.8 22.7 170.9 45.4 16.7 7.3 36.7 0.7 45.4-15.4 46.1-82.1 88.1-136.2 128.2-164.2l2-2c1.3 0.7 2 2 3.3 2.7 40 28.7 81.4 82.8 127.5 165.5 8.7 16 28.7 22.7 46.1 15.4 51.4-22.7 112.1-46.7 174.2-46.7h10c18.7 44.7 27.4 98.1 24 155.5-1.3 19.4 14 36.7 34 37.4 19.4 1.3 36.7-14 38-33.4 3.4-69.4-7.2-134.9-30.6-189.6z" p-id="2769"></path><path d="M367.1 306.2c-20 0-36 16-36 35.4v34.7c0 19.4 16 35.4 36 35.4s36-16 36-35.4v-34.7c0.1-19.4-16-35.4-36-35.4zM647.4 306.2c-20 0-36 16-36 35.4v34.7c0 19.4 16 35.4 36 35.4s36-16 36-35.4v-34.7c-0.6-19.4-16.6-35.4-36-35.4zM596 467.7c-16.7-10.7-38.7-6-49.4 10 0 0-15.3 22.7-39.4 22.7-22.7 0-37.4-20.7-38-22-10.7-16.7-32.7-21.4-49.4-11.3-16.7 10.7-22 32-11.3 48.7 12.7 20.7 48.1 55.4 98.8 55.4 50.7 0 86.1-34.7 99.4-54.7 10-16.8 5.4-38.1-10.7-48.8z" fill="#333333" p-id="2770"></path><path d="M901.1 790.1c-12-16-34-19.4-50.1-7.3L612.1 958.3c-16 12-19.4 34-7.3 50.1 7.3 9.3 18 14.7 28.7 14.7 7.3 0 14.7-2 21.4-6.7l238.9-175.5c15.3-12.8 18.6-34.8 7.3-50.8zM403.2 958.3l-239-175.6c-16-12-38.7-8.7-50.1 7.3-12 16-8.7 38 7.3 50.1l238.9 175.5c6.7 4.7 14 6.7 21.4 6.7 10.7 0 22-4.7 28.7-14.7 12.1-15.3 8.8-38-7.2-49.3z" fill="#2C97FB" p-id="2771"></path></svg>